<svg xmlns="http://www.w3.org/2000/svg" version="1.1" xmlns:xlink="http://www.w3.org/1999/xlink" xmlns:svgjs="http://svgjs.com/svgjs" width="1440" height="560" preserveAspectRatio="none" viewBox="0 0 1440 560"><g mask="url(&quot;#SvgjsMask1022&quot;)" fill="none"><rect width="1440" height="560" x="0" y="0" fill="rgba(252, 252, 237, 1)"></rect><path d="M0 0C0 0 0 0 0 0C70 0 70 0 140 0C210 0 210 0 280 0C350 0 350 0 420 0C450.34 0 453.04 -9.59 480.67 0C523.04 14.7 521.83 48.57 560 48.57C592.01 48.57 586.25 12.07 621.03 0C656.25 -12.22 660.51 0 700 0C748.13 0 749.66 -6.85 796.25 0C819.66 3.44 817.87 20.59 840 20.59C864.75 20.59 863.73 3.86 890 0C933.73 -6.43 935 0 980 0C1010.73 0 1016.52 -13.99 1041.46 0C1086.52 25.28 1073.03 51.8 1120 78.54C1182.3 114.02 1217.69 145.64 1260 124.44C1296.05 106.37 1241.4 31.39 1276.72 0C1311.4 -30.83 1338.36 0 1400 0C1470 0 1502.67 -32.67 1540 0C1572.67 28.58 1545.41 63.01 1540 122.5C1539.04 133.01 1527.27 132.02 1527.27 140C1527.27 146.15 1539.27 142.77 1540 150.77C1545.64 212.77 1540 215.38 1540 280C1540 331.85 1568.61 353.73 1540 383.7C1501.79 423.73 1406.36 396.34 1406.36 420C1406.36 445.12 1496.49 435.67 1540 481.25C1563.31 505.67 1565.2 545.83 1540 560C1495.2 585.2 1470 560 1400 560C1330 560 1330 560 1260 560C1190 560 1190 560 1120 560C1066.34 560 1060.57 572.73 1012.67 560C990.57 554.12 1002.19 523.74 980 522.78C915.86 520.01 910.62 542.1 840 552.53C784.62 560.71 784.02 557.01 728 560C714.02 560.75 714 560 700 560C630 560 630 560 560 560C490 560 490 560 420 560C350 560 350 560 280 560C233.34 560 226.36 575.27 186.67 560C156.36 548.34 170.24 506.76 140 506.15C76.9 504.87 36.53 578.7 0 556.22C-33.47 535.62 0 488.11 0 420C0 350 0 350 0 280C0 210 0 210 0 140C0 70 0 70 0 0" stroke="rgba(1, 13, 25, 0.17)" stroke-width="2"></path><path d="M840 236.67C800.22 236.67 757.27 259.51 757.27 280C757.27 299.94 799.91 317.53 840 317.53C871.11 317.53 899.67 299.76 899.67 280C899.67 259.33 871.42 236.67 840 236.67" stroke="rgba(1, 13, 25, 0.17)" stroke-width="2"></path><path d="M1400 249.38C1385.75 249.38 1370.75 260.62 1370.75 280C1370.75 341.27 1386.03 410.67 1400 410.67C1413.9 410.67 1426.49 341.86 1426.49 280C1426.49 261.21 1413.62 249.38 1400 249.38" stroke="rgba(1, 13, 25, 0.17)" stroke-width="2"></path><path d="M420 344.62C395.46 344.62 364 387.11 364 420C364 443.64 393.91 457.69 420 457.69C440.4 457.69 456.98 441.83 456.98 420C456.98 385.29 441.95 344.62 420 344.62" stroke="rgba(1, 13, 25, 0.17)" stroke-width="2"></path><path d="M1120 343C1109.61 343 1097.68 384.81 1097.68 420C1097.68 432.94 1109.23 439.25 1120 439.25C1129.89 439.25 1139.01 432.24 1139.01 420C1139.01 384.12 1130.28 343 1120 343" stroke="rgba(1, 13, 25, 0.17)" stroke-width="2"></path><path d="M0 125C8.77 125 12.2 134.52 26.25 140C82.2 161.81 81.56 174.41 140 179.57C208.44 185.61 214.15 178.76 280 162.4C293.81 158.97 299.31 149.45 299.31 140C299.31 132.97 290.44 132.84 280 129.43C210.78 106.84 198.67 124.95 140 88C95.91 60.23 74.47 27.55 74.47 0C74.47 -16.45 107.24 0 140 0C210 0 210 0 280 0C336.23 0 344.91 -15.42 392.46 0C414.91 7.28 398.99 30.36 420 45.41C482.76 90.36 494.25 128.73 560 120C634.25 110.14 624.69 21.13 700 8.24C764.69 -2.84 773.58 34.11 840 72.06C888.88 99.99 930.59 108.25 930.59 140C930.59 169.72 886.77 170.22 840 195C771.47 231.31 772.75 237.33 700 262.18C648.31 279.83 610.48 245.43 591.11 280C566.27 324.34 604.33 349.69 611.58 420C618.77 489.69 638.06 510.97 620 560C612.27 580.97 590 560 560 560C490 560 490 560 420 560C350 560 350 560 280 560C272.22 560 264.44 566.38 264.44 560C264.44 527.49 252.67 488.37 280 482.22C330.45 470.87 359.39 540.52 420 525C480.9 509.41 492.07 482.5 523.02 420C552.73 360 568.1 328.83 541.33 280C516.59 234.89 476.38 232.11 420 232.11C388.95 232.11 389.56 252.71 366.47 280C319.56 335.46 337.56 363.06 280 397.6C224.32 431 208.99 405.07 140 415.88C137.53 416.27 139.18 418.61 137.08 420C69.18 465.13 44.39 508.92 0 508.92C-24.15 508.92 0 464.46 0 420C0 350 0 350 0 280C0 210 0 210 0 140C0 132.5 -4.35 125 0 125" stroke="rgba(1, 13, 25, 0.17)" stroke-width="2"></path><path d="M1328.57 140C1306.95 80.74 1305.27 46.44 1328.96 0C1340.98 -23.56 1364.48 0 1400 0C1470 0 1484 -14 1540 0C1554 3.5 1548.11 20.14 1540 35C1509.93 90.14 1506.16 91.5 1463.64 140C1436.16 171.35 1432.59 194.69 1400 194.69C1365.06 194.69 1342.47 178.08 1328.57 140" stroke="rgba(1, 13, 25, 0.17)" stroke-width="2"></path><path d="M957.05 280C976.97 262.41 963.56 230 980 230C1001.96 230 1022.36 247.39 1033.85 280C1055.84 342.39 1063.46 359.2 1046.96 420C1036.53 458.44 1019.73 462 980 478.48C916.25 504.93 901.63 521.41 840 505.87C785.63 492.17 748 460.04 748 420C748 383.91 792.89 385.16 840 353.61C897.42 315.16 906.97 324.21 957.05 280" stroke="rgba(1, 13, 25, 0.17)" stroke-width="2"></path><path d="M1170.91 280C1188.56 231.13 1219.4 204.62 1260 204.62C1293.2 204.62 1300.3 237.04 1318.51 280C1345.95 344.73 1337.63 349.47 1351.3 420C1364.77 489.47 1398.19 521.03 1372.78 560C1352.54 591.03 1316.39 560 1260 560C1190 560 1190 560 1120 560C1085.78 560 1051.56 575.37 1051.56 560C1051.56 536.87 1084.87 520.64 1120 483C1150.2 450.64 1172.38 459.25 1182.22 420C1197.83 357.75 1149.67 338.82 1170.91 280" stroke="rgba(1, 13, 25, 0.17)" stroke-width="2"></path><path d="M1473.78 280C1473.78 244.13 1521.09 204.62 1540 204.62C1554.2 204.62 1540 242.31 1540 280C1540 310.25 1553.34 340.49 1540 340.49C1520.23 340.49 1473.78 312.06 1473.78 280" stroke="rgba(1, 13, 25, 0.17)" stroke-width="2"></path><path d="M1508.89 560C1508.89 558.53 1526.86 554.17 1540 554.17C1542.42 554.17 1542.45 559.54 1540 560C1526.9 562.45 1508.89 561.44 1508.89 560" stroke="rgba(1, 13, 25, 0.17)" stroke-width="2"></path><path d="M280 63.4C223.95 63.4 155.56 16.76 155.56 0C155.56 -14.94 217.78 0 280 0C307.54 0 335.08 -12.56 335.08 0C335.08 19.14 313.71 63.4 280 63.4" stroke="rgba(1, 13, 25, 0.17)" stroke-width="2"></path><path d="M621.46 140C621.46 109.15 655.66 80.2 700 76.86C764.93 71.97 771.72 96.91 840 123.53C852.7 128.48 861.96 132.3 861.96 140C861.96 147.2 852.04 148.98 840 153.33C771.06 178.25 765.59 202.55 700 198.55C656.32 195.89 621.46 169.99 621.46 140" stroke="rgba(1, 13, 25, 0.17)" stroke-width="2"></path><path d="M1400 140C1382.68 140 1381.19 61.77 1381.19 0C1381.19 -8.23 1390.6 0 1400 0C1426.25 0 1452.5 -18.19 1452.5 0C1452.5 51.81 1418.33 140 1400 140" stroke="rgba(1, 13, 25, 0.17)" stroke-width="2"></path><path d="M0 254.07C59.06 243.8 70.92 247.97 140 255.65C187.59 260.94 233.33 265.86 233.33 280C233.33 294.51 176.37 282.84 140 312.94C91.79 352.84 108.39 373.04 64.17 420C38.39 447.38 20.78 461.62 0 461.62C-11.31 461.62 0 440.81 0 420C0 350 0 350 0 280C0 267.03 -10.94 255.97 0 254.07" stroke="rgba(1, 13, 25, 0.17)" stroke-width="2"></path><path d="M1250.45 280C1251.85 274.01 1255.65 271.92 1260 271.92C1263.56 271.92 1264.93 275.09 1266.27 280C1285.22 349.13 1298.24 349.53 1300.58 420C1302.89 489.53 1293.85 496.9 1275.56 560C1273.56 566.9 1267.78 560 1260 560C1190 560 1190 560 1120 560C1105.22 560 1090.44 566.64 1090.44 560C1090.44 550.01 1104.56 542.76 1120 526.75C1172.06 472.76 1191.95 483.34 1225.43 420C1257.17 359.96 1234.56 348.05 1250.45 280" stroke="rgba(1, 13, 25, 0.17)" stroke-width="2"></path><path d="M1521.08 280C1521.08 269.75 1534.6 258.46 1540 258.46C1544.06 258.46 1540 269.23 1540 280C1540 288.64 1543.81 297.28 1540 297.28C1534.35 297.28 1521.08 289.16 1521.08 280" stroke="rgba(1, 13, 25, 0.17)" stroke-width="2"></path><path d="M798 420C798 403.52 815.58 396.22 840 389.69C906.58 371.87 922.71 360.19 980 371.3C1000.83 375.34 996.23 397.86 996.23 420C996.23 429.3 990.28 431.6 980 434.18C912.16 451.2 904.82 464.25 840 459.2C813.82 457.16 798 438.28 798 420" stroke="rgba(1, 13, 25, 0.17)" stroke-width="2"></path></g><defs><mask id="SvgjsMask1022"><rect width="1440" height="560" fill="#ffffff"></rect></mask></defs></svg>